HIERARCHY
ROOT joint_0
{
	OFFSET 0.000000 0.000000 0.000000
	CHANNELS 6 Xposition Yposition Zposition Zrotation Yrotation Xrotation 
	JOINT joint_1
	{
		OFFSET 14.113007 -2.961990 123.953979
		CHANNELS 3 Zrotation Yrotation Xrotation
		JOINT joint_2
		{
			OFFSET 0.764000 -2.434006 113.871948
			CHANNELS 3 Zrotation Yrotation Xrotation
			JOINT joint_3
			{
				OFFSET 0.186996 -2.169998 113.753052
				CHANNELS 3 Zrotation Yrotation Xrotation
				JOINT joint_4
				{
					OFFSET 16.096001 -2.720001 160.853027
					CHANNELS 3 Zrotation Yrotation Xrotation
					JOINT joint_5
					{
						OFFSET 34.392006 -0.188995 92.567017
						CHANNELS 3 Zrotation Yrotation Xrotation
						End Site
						{
							OFFSET 0.000000 0.000000 0.000000
						}
					}
				}
				JOINT joint_6
				{
					OFFSET 9.183998 -36.684006 89.597046
					CHANNELS 3 Zrotation Yrotation Xrotation
					JOINT joint_7
					{
						OFFSET 0.486000 -164.365997 -28.984009
						CHANNELS 3 Zrotation Yrotation Xrotation
						JOINT joint_8
						{
							OFFSET 38.899002 -34.967010 -291.651978
							CHANNELS 3 Zrotation Yrotation Xrotation
							JOINT joint_9
							{
								OFFSET 41.714005 -45.890991 -258.857056
								CHANNELS 3 Zrotation Yrotation Xrotation
								End Site
								{
									OFFSET 0.000000 0.000000 0.000000
								}
							}
						}
					}
				}
				JOINT joint_10
				{
					OFFSET 8.867004 33.650002 90.817993
					CHANNELS 3 Zrotation Yrotation Xrotation
					JOINT joint_11
					{
						OFFSET 0.018997 164.299999 -29.368042
						CHANNELS 3 Zrotation Yrotation Xrotation
						JOINT joint_12
						{
							OFFSET 29.440994 30.887997 -293.216919
							CHANNELS 3 Zrotation Yrotation Xrotation
							JOINT joint_13
							{
								OFFSET 46.174011 54.490005 -256.422058
								CHANNELS 3 Zrotation Yrotation Xrotation
								End Site
								{
									OFFSET 0.000000 0.000000 0.000000
								}
							}
						}
					}
				}
			}
		}
	}
	JOINT joint_14
	{
		OFFSET -2.264000 -89.466995 -116.150024
		CHANNELS 3 Zrotation Yrotation Xrotation
		JOINT joint_15
		{
			OFFSET -16.400993 -17.452988 -493.781982
			CHANNELS 3 Zrotation Yrotation Xrotation
			JOINT joint_16
			{
				OFFSET -50.497004 -13.404022 -424.754013
				CHANNELS 3 Zrotation Yrotation Xrotation
				JOINT joint_17
				{
					OFFSET 198.546007 -19.341003 -89.309000
					CHANNELS 3 Zrotation Yrotation Xrotation
					End Site
					{
						OFFSET 0.000000 0.000000 0.000000
					}
				}
			}
		}
	}
	JOINT joint_18
	{
		OFFSET -0.867996 96.016006 -110.817993
		CHANNELS 3 Zrotation Yrotation Xrotation
		JOINT joint_19
		{
			OFFSET -10.130997 24.658998 -493.645020
			CHANNELS 3 Zrotation Yrotation Xrotation
			JOINT joint_20
			{
				OFFSET -48.871004 19.434999 -424.714005
				CHANNELS 3 Zrotation Yrotation Xrotation
				JOINT joint_21
				{
					OFFSET 195.579996 24.926001 -94.327003
					CHANNELS 3 Zrotation Yrotation Xrotation
					End Site
					{
						OFFSET 0.000000 0.000000 0.000000
					}
				}
			}
		}
	}
}
MOTION
Frames: 6
Frame Time: 0.016667
-3040.908936 948.265137 1143.579956 5.160871 -4.705561 -2.120184 0.169418 1.370887 3.041809 0.149401 -0.193985 -0.631622 0.156413 0.292125 0.462922 -0.983753 -1.204041 2.594135 0.000000 0.000000 0.000000 -1.095654 3.291220 -0.931592 -0.481504 3.184027 -1.653928 0.254589 -4.085556 -2.774764 0.000000 0.000000 0.000000 1.153528 0.243819 1.159782 0.247627 0.080637 1.365663 0.220793 0.564915 0.554593 0.000000 0.000000 0.000000 2.427282 3.490975 4.113185 2.698760 0.775754 -0.415825 2.731180 -4.653695 0.770934 0.000000 0.000000 0.000000 -1.282466 5.643134 1.215717 -1.580496 -0.816321 0.207221 -1.669245 -4.006512 -0.292889 0.000000 0.000000 0.000000 
-3040.726562 948.074829 1143.493042 5.147591 -4.739219 -2.119154 0.169804 1.382198 3.052101 0.149161 -0.200559 -0.633863 0.156411 0.299896 0.464136 -0.975569 -1.187011 2.572750 0.000000 0.000000 0.000000 -1.097223 3.298419 -0.907179 -0.486693 3.191713 -1.680609 0.253275 -4.078758 -2.775939 0.000000 0.000000 0.000000 1.162095 0.259501 1.099097 0.250963 0.095579 1.382233 0.220853 0.566828 0.552840 0.000000 0.000000 0.000000 2.429603 3.518934 4.127120 2.701462 0.808328 -0.415627 2.735041 -4.656094 0.772392 0.000000 0.000000 0.000000 -1.277004 5.679136 1.224224 -1.575452 -0.790280 0.209220 -1.666217 -4.020805 -0.289610 0.000000 0.000000 0.000000 
-3040.518066 947.890381 1143.396973 5.131574 -4.790436 -2.118376 0.170364 1.411939 3.064295 0.148498 -0.208309 -0.637227 0.156051 0.310587 0.466609 -0.967438 -1.170377 2.551490 0.000000 0.000000 0.000000 -1.096549 3.302380 -0.881906 -0.491423 3.196464 -1.707388 0.252681 -4.074678 -2.775548 0.000000 0.000000 0.000000 1.170978 0.271962 1.038238 0.254391 0.107258 1.402210 0.221089 0.570168 0.550357 0.000000 0.000000 0.000000 2.432441 3.566247 4.142216 2.705387 0.843899 -0.415897 2.740240 -4.661298 0.774169 0.000000 0.000000 0.000000 -1.269698 5.737046 1.232764 -1.569619 -0.765026 0.210511 -1.662620 -4.037405 -0.285757 0.000000 0.000000 0.000000 
-3040.286865 947.711121 1143.291992 5.113665 -4.860048 -2.118087 0.170379 1.462685 3.079353 0.146557 -0.220179 -0.641287 0.154556 0.325739 0.468887 -0.958886 -1.151598 2.529160 0.000000 0.000000 0.000000 -1.090430 3.302535 -0.854997 -0.495676 3.198276 -1.733268 0.252401 -4.072268 -2.774917 0.000000 0.000000 0.000000 1.180303 0.281501 0.978092 0.257860 0.115935 1.426087 0.221232 0.574358 0.546325 0.000000 0.000000 0.000000 2.435393 3.633564 4.158906 2.710155 0.883186 -0.416548 2.746476 -4.669886 0.776073 0.000000 0.000000 0.000000 -1.260479 5.818295 1.242067 -1.563042 -0.742321 0.210290 -1.658494 -4.056052 -0.281383 0.000000 0.000000 0.000000 
-3040.029297 947.537659 1143.177979 5.092702 -4.947479 -2.118106 0.170621 1.532282 3.096459 0.144219 -0.233614 -0.646297 0.152741 0.344053 0.472167 -0.950042 -1.133207 2.506060 0.000000 0.000000 0.000000 -1.081272 3.299530 -0.827245 -0.499485 3.197378 -1.759302 0.252967 -4.072918 -2.772297 0.000000 0.000000 0.000000 1.190004 0.287939 0.917675 0.261384 0.121451 1.453164 0.221526 0.579115 0.542455 0.000000 0.000000 0.000000 2.438723 3.720479 4.176709 2.716005 0.925637 -0.417209 2.753989 -4.681482 0.778247 0.000000 0.000000 0.000000 -1.249331 5.921703 1.251401 -1.555595 -0.720257 0.209540 -1.653734 -4.077452 -0.276348 0.000000 0.000000 0.000000 
-3039.725342 947.370667 1143.053955 5.072644 -5.065239 -2.120174 0.171191 1.633629 3.116974 0.141129 -0.249997 -0.652533 0.150296 0.367148 0.475330 -0.941870 -1.117139 2.484635 0.000000 0.000000 0.000000 -1.070730 3.293423 -0.799614 -0.502819 3.193537 -1.784294 0.254198 -4.072889 -2.764924 0.000000 0.000000 0.000000 1.198365 0.291069 0.857588 0.264658 0.123860 1.483579 0.221305 0.582110 0.537814 0.000000 0.000000 0.000000 2.441168 3.843306 4.197311 2.722449 0.969215 -0.416861 2.762359 -4.695830 0.780519 0.000000 0.000000 0.000000 -1.236986 6.060889 1.261843 -1.548510 -0.696321 0.209337 -1.649607 -4.103449 -0.271024 0.000000 0.000000 0.000000 
